Blubberella.2011.HQ.DVDRip.h.264.AC3.NL.Subs.MQ.DMT
.
[IMG]http://img6.imageshack.us/img6/2249/71814.jpg[/IMG]
.
Duitsland / Canada
Komedie

geregisseerd door Uwe Boll
met Lindsay Hollister, Michael ParÚ en Vjekoslav Katusin

Blubberella is een vrouw met een reusachtig overgewicht. Maar, maak daar geen grapjes over! Want haar voetstappen veroorzaken explosies en haar twee zwaarden treffen iedereen die haar bespot.
. 
http://www.moviemeter.nl/film/71814
.
PLOT
.
An action comedy centered on an overweight woman whose footsteps cause explosions and whose dual swords are used against anyone who makes fun of her.
. 
http://www.imdb.com/title/tt1756427/
.
INFO

Subs: Dutch (Selectable)
.
Screens
.
[IMG]http://img848.imageshack.us/img848/2250/vlcsnap2011062022h27m31.png[/IMG]
[IMG]http://img801.imageshack.us/img801/4774/vlcsnap2011062022h28m02.png[/IMG]
[IMG]http://img600.imageshack.us/img600/3301/vlcsnap2011062022h28m21.png[/IMG]
.
Source: Retail DVD
Video
ID                               : 0
Format                           : AVC
Format/Info                      : Advanced Video Codec
Format profile                   : High@L2.1
Format settings, CABAC           : Yes
Format settings, ReFrames        : 4 frames
Codec ID                         : H264
Duration                         : 1h 23mn
Bit rate                         : 783 Kbps
Width                            : 704 pixels
Height                           : 288 pixels
Display aspect ratio             : 2.40:1
Frame rate                       : 25.000 fps
Color space                      : YUV
Chroma subsampling               : 4:2:0
Bit depth                        : 8 bits
Scan type                        : Progressive
Bits/(Pixel*Frame)               : 0.154
Stream size                      : 465 MiB (67%)
Writing library                  : x264 core 93 r1538bm bd72d46
Encoding settings                : cabac=1 / ref=3 / deblock=1:-2:-1 / analyse=0x3:0x113 / me=umh / subme=6 / psy=1 / psy_rd=1.00:0.00 / mixed_ref=1 / me_range=12 / chroma_me=1 / trellis=1 / 8x8dct=1 / cqm=0 / deadzone=21,11 / fast_pskip=1 / chroma_qp_offset=-2 / threads=2 / sliced_threads=0 / nr=0 / decimate=1 / interlaced=0 / constrained_intra=0 / bframes=16 / b_pyramid=2 / b_adapt=1 / b_bias=0 / direct=3 / wpredb=1 / wpredp=2 / keyint=250 / keyint_min=25 / scenecut=40 / intra_refresh=0 / rc_lookahead=40 / rc=2pass / mbtree=1 / bitrate=783 / ratetol=1.0 / qcomp=0.60 / qpmin=10 / qpmax=51 / qpstep=4 / cplxblur=20.0 / qblur=0.5 / ip_ratio=1.40 / aq=1:1.00

Audio
ID                               : 1
Format                           : AC-3
Format/Info                      : Audio Coding 3
Mode extension                   : CM (complete main)
Codec ID                         : 2000
Duration                         : 1h 23mn
Bit rate mode                    : Constant
Bit rate                         : 384 Kbps
Channel(s)                       : 6 channels
Channel positions                : Front: L C R, Side: L R, LFE
Sampling rate                    : 48.0 KHz
Bit depth                        : 16 bits
Stream size                      : 228 MiB (33%)
Alignment                        : Aligned on interleaves
Interleave, duration             : 64 ms (1.60 video frames)
Interleave, preload duration     : 192 ms

Text
ID                               : 2
Stream size                      : 80.9 KiB (0%)
.
Enjoy
.
Deze film wordt u aangeboden door:

DUTCH MOVIE THEATER

[IMG]http://img220.imageshack.us/img220/2386/dmta.png[/IMG]
